<svg xmlns="http://www.w3.org/2000/svg" xmlns:xlink="http://www.w3.org/1999/xlink" width="19" height="19" viewBox="0 0 19 19" version="1.1">
<g id="Canvas" fill="none">
<g id="Sky Team">
<path id="Fill 1" fill-rule="evenodd" clip-rule="evenodd" d="M 0.120936 0.375942C 0.215983 0.417674 0.32818 0.367156 0.36677 0.266853C 0.405361 0.166549 0.356765 0.0530671 0.259575 0.0127993C 0.162385 -0.0252721 0.0523313 0.0245136 0.0130265 0.123353C -0.0241345 0.225853 0.0201728 0.337871 0.120936 0.375942L 0.120936 0.375942ZM 0.133586 0.344469C 0.052118 0.311523 0.0142423 0.221469 0.0456862 0.136541C 0.0764155 0.0552728 0.166459 0.0128085 0.245069 0.0479514C 0.324394 0.08163 0.363698 0.170951 0.332255 0.253684C 0.301525 0.336416 0.213625 0.375951 0.133586 0.344469L 0.133586 0.344469ZM 0.225149 0.230284C 0.260881 0.241267 0.285178 0.232481 0.298756 0.198802C 0.307332 0.174642 0.309476 0.154874 0.295183 0.134374C 0.285178 0.119731 0.263024 0.110945 0.248017 0.104356L 0.1544 0.0670166L 0.0800781 0.263963L 0.116524 0.278606L 0.148683 0.198802L 0.185844 0.212713L 0.195134 0.311552L 0.240871 0.327659L 0.225149 0.230284ZM 0.161621 0.166605L 0.180916 0.110962L 0.228082 0.129265C 0.245233 0.136587 0.273104 0.147569 0.263099 0.174658C 0.254524 0.200283 0.235228 0.200283 0.215933 0.190033L 0.161621 0.166605Z" transform="translate(14.3389 1.14807)" fill="#FEFEFE"/>
<g id="Group 5">
<mask id="mask0" mask-type="alpha" maskUnits="userSpaceOnUse" x="4" y="4" width="15" height="15">
<path id="Clip 4" fill-rule="evenodd" clip-rule="evenodd" d="M 13.635 0L 13.635 14.6673L 0 14.6673L 0 0L 13.635 0L 13.635 0Z" transform="translate(4.66553 4.06934)" fill="white"/>
</mask>
<g mask="url(#mask0)">
<path id="Fill 3" fill-rule="evenodd" clip-rule="evenodd" d="M 10.794 0L 10.7862 0.00805357C 12.1137 1.37643 12.9855 3.22216 13.1258 5.30145C 13.4348 9.89491 10.0776 13.8734 5.60141 14.1962C 3.50614 14.3493 1.53692 13.6633 0.00640976 12.4201L 0 12.4274C 1.58748 13.9488 3.76253 14.8149 6.09212 14.6465C 10.5661 14.3258 13.9305 10.3437 13.615 5.75245C 13.4584 3.43082 12.3908 1.39912 10.794 0" transform="translate(4.66553 4.06934)" fill="#FEFEFE"/>
</g>
</g>
<path id="Fill 6" fill-rule="evenodd" clip-rule="evenodd" d="M 0.502784 0.746389C 0.246394 0.895014 0.185857 1.11685 0.319038 1.46169C 0.439399 1.77212 0.635252 1.9105 0.841077 1.8263C 1.00417 1.75748 1.03266 1.61251 0.962862 1.23546L 0.93295 1.09123C 0.867428 0.722228 0.856033 0.561889 0.898052 0.402282C 0.940784 0.225836 1.04192 0.107229 1.19361 0.0457285C 1.55968 -0.105825 1.9051 0.1248 2.11306 0.656336C 2.33669 1.22594 2.21704 1.6645 1.78046 1.849L 1.67221 1.56712C 1.97133 1.43167 2.04825 1.14101 1.89014 0.727354C 1.75838 0.384711 1.54615 0.236086 1.32608 0.327604C 1.14732 0.400086 1.10388 0.571407 1.17082 0.95505L 1.19789 1.11685L 1.21996 1.25816C 1.26555 1.54809 1.27267 1.64766 1.24632 1.76919C 1.21071 1.92075 1.1167 2.03496 0.963574 2.09719C 0.621721 2.23337 0.285565 2.02764 0.100394 1.55248C -0.10187 1.03266 0.00424755 0.649014 0.393818 0.471836L 0.502784 0.746389Z" transform="translate(0.587402 12.7957)" fill="#FEFEFE"/>
<path id="Fill 8" fill-rule="evenodd" clip-rule="evenodd" d="M 0.859619 1.06673L 2.091 0L 2.10026 0.395357L 1.05476 1.28125L 1.39804 1.66343L 2.12804 1.64513L 2.13516 1.95702L 0.0420195 2.00241L 0.0334732 1.69491L 0.855346 1.67587L 0.969298 1.67587L 1.07755 1.67587L 1.00348 1.59973L 0.936537 1.52139L 0.0113951 0.497125L 0 0.087125L 0.859619 1.06673Z" transform="translate(0 9.46887)" fill="#FEFEFE"/>
<path id="Fill 10" fill-rule="evenodd" clip-rule="evenodd" d="M 1.54618 1.26295L 2.34953 1.54629L 2.24982 1.84207L 1.44576 1.54629L 0 1.99948L 0.118224 1.64293L 1.01773 1.38888L 1.13025 1.35446C 1.17512 1.34129 1.2029 1.33616 1.28124 1.32005C 1.21358 1.23586 1.19506 1.21389 1.121 1.10846L 0.562634 0.333857L 0.678722 0L 1.54618 1.26295Z" transform="translate(0.244629 5.94592)" fill="#FEFEFE"/>
<path id="Fill 12" fill-rule="evenodd" clip-rule="evenodd" d="M 1.49846 0.249661L 1.05619 0.804625L 2.37588 1.91382L 2.06038 2.3165L 0.740683 1.20657L 0.299834 1.75348L 0 1.50675L 1.20005 0L 1.49846 0.249661Z" transform="translate(1.70557 3.01062)" fill="#FEFEFE"/>
<path id="Fill 14" fill-rule="evenodd" clip-rule="evenodd" d="M 1.67651 0.343375L 0.621034 0.976679L 0.848224 1.37277L 1.81467 0.792179L 2.00056 1.10846L 1.02841 1.69198L 1.28907 2.14884L 2.36662 1.50162L 2.56105 1.84573L 1.05191 2.74993L 0 0.896143L 1.4835 0L 1.67651 0.343375Z" transform="translate(4.34424 0.879639)" fill="#FEFEFE"/>
<path id="Fill 16" fill-rule="evenodd" clip-rule="evenodd" d="M 2.29897 2.05512L 1.75912 2.09173L 1.48849 1.63121L 0.641688 1.76813L 0.524888 2.29673L 0 2.43364L 0.553376 0.087125L 1.06972 0L 2.29897 2.05512ZM 1.1096 0.948075C 0.989956 0.751861 0.9458 0.6662 0.881703 0.509521C 0.861761 0.6662 0.842532 0.77895 0.792678 1.00299L 0.705078 1.41152L 1.31828 1.30975L 1.1096 0.948075Z" transform="translate(7.76953 0.00146484)" fill="#FEFEFE"/>
<g id="Group 20">
<mask id="mask1" mask-type="alpha" maskUnits="userSpaceOnUse" x="11" y="0" width="3" height="3">
<path id="Clip 19" fill-rule="evenodd" clip-rule="evenodd" d="M 2.9314 0L 0 0L 0 2.74876L 2.9314 2.74876L 2.9314 0L 2.9314 0Z" transform="translate(11.0449 0)" fill="white"/>
</mask>
<g mask="url(#mask1)">
<path id="Fill 18" fill-rule="evenodd" clip-rule="evenodd" d="M 2.38585 2.7492L 1.94714 2.57202L 2.11308 1.93505C 2.13089 1.85891 2.15795 1.75934 2.19285 1.62975C 2.22703 1.49723 2.25837 1.38961 2.28259 1.3098C 2.30822 1.22414 2.33529 1.13409 2.36164 1.04037L 2.41363 0.887357C 2.28828 1.1048 2.24128 1.18314 2.12661 1.36032C 2.07819 1.4372 2.03474 1.50309 1.99913 1.55507L 1.4073 2.40802L 1.02556 2.30625L 0.906624 1.27686C 0.898078 1.22414 0.890244 1.15093 0.884546 1.0477C 0.879561 0.915179 0.872439 0.811214 0.870302 0.743125C 0.864605 0.681625 0.866029 0.598161 0.866029 0.481018L 0.813327 0.738C 0.754215 1.0228 0.726439 1.14507 0.643824 1.48625L 0.470049 2.17666L 0 2.10198L 0.527737 0L 1.23495 0.142036L 1.33323 1.13409C 1.35744 1.3713 1.36172 1.56239 1.35317 1.83914C 1.4308 1.68393 1.46142 1.62975 1.55045 1.48625C 1.6117 1.38814 1.66155 1.30468 1.71283 1.22854L 2.26122 0.417321L 2.9314 0.650875L 2.38585 2.7492Z" transform="translate(11.0449 -0.000488281)" fill="#FEFEFE"/>
</g>
</g>
<path id="Fill 21" fill-rule="evenodd" clip-rule="evenodd" d="M 5.75463 1.14006C 5.49966 1.36776 4.99471 1.86049 4.50828 2.34298L 3.95918 2.88403C 3.51121 2.80203 3.06751 2.76103 2.611 2.76103C 1.58828 2.76103 0.661006 3.04876 0.23725 3.4961C 0.0741574 3.66669 -0.00916947 3.85192 0.000801257 4.04814C 0.0093476 4.55039 0.574118 4.80883 0.745757 4.87473C 1.64384 5.22103 2.4009 5.12073 3.20354 4.54746C 3.64439 4.23044 4.17142 3.72233 4.58591 3.3138C 4.90925 3.38628 5.27532 3.48805 5.66987 3.60739L 6.03309 3.71574C 5.56376 4.18944 5.0759 4.6873 4.62864 5.09364L 4.59446 5.12365C 3.97271 5.68814 3.52617 6.09448 2.87736 6.24237C 2.41657 6.34633 2.09252 6.24749 1.98711 6.18087C 1.97358 6.18306 1.96076 6.2021 1.96076 6.2021C 2.33609 6.51473 2.69504 6.69849 3.3061 6.64358C 3.88939 6.59233 4.5617 6.21894 5.25609 5.55855L 6.18194 4.61774L 6.82719 3.95442C 6.82719 3.95735 8.14546 4.35198 8.14546 4.35198C 8.15544 4.35344 8.17182 4.35856 8.17182 4.35856C 8.15544 4.35856 7.34994 5.17417 7.34994 5.17417L 6.65199 5.88581C 5.94336 6.59892 5.55521 6.97451 5.13573 7.27689C 4.43778 7.78206 3.8495 8.04856 3.32746 8.08078C 3.05897 8.09689 2.66797 8.08078 2.33609 7.88383C 2.32185 7.88164 2.30546 7.89921 2.30546 7.89921C 2.66085 8.20964 3.09315 8.5823 3.83953 8.56106C 4.68491 8.53837 5.43343 8.12105 6.58789 7.02137C 7.11919 6.51473 7.64835 5.96196 8.11484 5.46556L 8.97802 4.5643C 9.54849 4.69462 10.0556 4.7466 10.6232 4.73489C 11.4422 4.71951 12.133 4.3161 12.1416 3.85558C 12.1516 3.51367 11.8781 3.3343 11.72 3.22374C 11.5882 3.13515 11.2229 2.92576 10.7144 2.92576C 10.0969 2.92576 9.4559 3.20471 8.80994 3.75381L 8.37408 4.14698C 8.37978 4.14478 8.21526 4.10231 8.21526 4.10231L 7.01236 3.75674C 7.36632 3.41483 7.66901 3.12051 7.9432 2.87524C 8.60127 2.27269 9.32842 2.0223 9.75431 1.99667C 10.0634 1.97544 10.6104 2.00399 10.8326 2.16653C 10.8411 2.1636 10.8561 2.13944 10.8561 2.13944C 10.2657 1.61449 9.74933 1.55153 9.32415 1.55153C 8.9068 1.55153 8.2409 1.68551 7.41974 2.33858C 7.08643 2.60508 6.65199 3.0451 6.20545 3.5188C 6.20545 3.51367 5.59865 3.32478 5.59865 3.32478L 5.44981 3.27792L 4.80812 3.07731C 4.82236 3.07731 5.17704 2.72589 5.17704 2.72589C 5.60578 2.29246 6.01529 1.87806 6.32937 1.60644C 7.47743 0.609261 8.20956 0.478207 8.7138 0.47235C 9.26575 0.47235 9.70446 0.589493 10.0192 0.822315C 10.0285 0.822315 10.0435 0.801082 10.0435 0.801082C 9.39608 0.199261 8.9303 0.00451094 8.12481 0.000118082C 7.41404 -0.00793549 6.57151 0.396207 5.75463 1.14006L 5.75463 1.14006ZM 1.21024 4.69461C 0.842743 4.66898 0.661133 4.51157 0.661133 4.21725C 0.661133 4.17845 0.687484 3.23618 2.77849 3.12856C 3.01565 3.11611 3.28557 3.10879 3.69295 3.15638C 3.67443 3.15931 3.45507 3.3665 3.45507 3.3665L 3.32545 3.49097C 2.81766 3.96174 1.96801 4.74659 1.21024 4.69461L 1.21024 4.69461ZM 9.69815 3.93169C 10.3057 3.51364 10.8049 3.29107 11.1176 3.30059C 11.302 3.30937 11.5235 3.36648 11.5235 3.60223C 11.5235 3.84091 11.2999 4.04518 10.8654 4.20478C 10.4794 4.34389 9.88831 4.38123 9.24805 4.30435C 9.42538 4.14475 9.57423 4.02175 9.69815 3.93169L 9.69815 3.93169Z" transform="translate(3.68359 5.74695)" fill="#FEFEFE"/>
</g>
</g>
</svg>